<svg xmlns="http://www.w3.org/2000/svg" width="2400" height="1800" viewBox="0 0 2400 1800" xmlns:xlink="http://www.w3.org/1999/xlink">
  <defs>
    <polygon id="a" points="0 193.199 0 2.978 303.763 2.978 303.763 383.419 0 383.419"/>
    <polygon id="c" points="0 498 1548 498 1548 6 0 6"/>
  </defs>
  <g fill="none" fill-rule="evenodd" transform="translate(426 654)">
    <mask id="b" fill="white">
      <use xlink:href="#a"/>
    </mask>
    <path fill="#020303" d="M39.4281,84.9120756 L82.91682,41.9494299 C85.2363,39.6484535 87.5619,38.5025008 91.03194,38.5025008 L213.89094,38.5025008 C217.3671,38.5025008 219.68658,39.6484535 222.00606,41.9494299 L278.25498,97.5175559 L303.76314,72.8810835 L245.20698,15.0180283 C237.08268,6.99333543 227.22642,2.97796535 216.21654,2.97796535 L88.71246,2.97796535 C77.70564,2.97796535 67.8402,6.99333543 59.72508,15.0180283 L12.17574,61.9960441 C4.06062,70.0116661 0,79.7537764 0,90.644863 L0,295.761335 C0,306.646375 4.06062,316.385461 12.17574,324.407131 L59.72508,371.391194 C67.8402,379.415887 77.70564,383.419162 88.71246,383.419162 L216.21654,383.419162 C227.22642,383.419162 237.08268,379.415887 245.20698,371.391194 L303.76314,313.519068 L278.25498,288.888643 L222.00606,344.459792 C219.68658,346.751698 217.3671,347.89765 213.89094,347.89765 L91.03194,347.89765 C87.5619,347.89765 85.2363,346.751698 82.91682,344.459792 L39.4281,301.488076 C37.10862,299.199194 35.95194,296.329776 35.95194,293.46943 L35.95194,92.9367685 C35.95194,90.0703748 37.10862,87.2039811 39.4281,84.9120756" mask="url(#b)"/>
    <mask id="d" fill="white">
      <use xlink:href="#c"/>
    </mask>
    <polygon fill="#020303" points="384 390 420 390 420 6 384 6" mask="url(#d)"/>
    <polygon fill="#020303" points="528 60 564 60 564 6 528 6" mask="url(#d)"/>
    <polygon fill="#020303" points="528 384 564 384 564 102 528 102" mask="url(#d)"/>
    <path fill="#020303" d="M867.23296 316.760971C867.23296 320.197268 866.092499 322.488132 863.793376 324.782018L841.378452 347.113412C839.07933 349.404276 836.200878 350.546686 833.322426 350.546686L758.036792 350.546686C754.57901 350.546686 751.70359 349.404276 749.407501 347.113412L699.415245 297.291647C697.116123 295.000783 695.957462 292.138713 695.957462 289.267577L695.957462 195.342142C695.957462 192.486117 697.116123 189.630092 699.415245 187.339228L749.407501 137.508396C751.70359 135.217532 754.57901 134.0721 758.036792 134.0721L833.322426 134.0721C836.200878 134.0721 839.07933 135.217532 841.378452 137.508396L863.793376 159.845834C866.092499 162.133676 867.23296 167.289632 867.23296 170.725929L867.23296 316.760971zM862.634716 113.457344C854.584755 105.436296 845.394333 102 834.481086 102L758.036792 102C747.108379 102 737.338627 106.010524 729.303832 114.034593L695.957462 147.243059 686.18771 102 654 102 663.199522 147.243059 663.199522 492 695.957462 492 695.957462 337.375727 729.303832 370.59326C737.338627 378.617329 747.108379 382.618786 758.036792 382.618786L834.481086 382.618786C845.394333 382.618786 854.584755 379.185512 862.634716 371.170509L887.931125 345.96798C895.984119 337.946932 900 328.209248 900 316.760971L900 169.003247C900 157.55497 895.984119 146.665809 887.931125 138.650806L862.634716 113.457344zM1176.54473 253.381678C1176.54473 330.621364 1134.9426 360.599696 1086.05111 360.599696 1045.58194 360.599696 1018.59751 337.542483 1018.59751 302.955142 1018.59751 264.327694 1049.50837 249.344612 1116.39848 242.420451L1176.54473 236.086487 1176.54473 253.381678zM1208.90628 290.846987C1208.90628 267.789774 1209.47876 243.001521 1209.47876 191.693974 1209.47876 117.9042 1171.43139 96 1104.97288 96 1040.87623 96 997.751483 128.208301 994.247672 182.856238L1028.44954 182.856238C1031.23101 149.549685 1053.94733 125.397262 1101.57398 125.397262 1140.19682 125.397262 1176.54473 134.046379 1176.54473 191.115947L1176.54473 207.830069 1120.8854 213.601217C1086.23394 217.060255 1040.8013 222.822277 1014.11059 241.276565 995.923147 253.953621 984 274.707851 984 301.80213 984 350.797566 1018.07898 390 1080.55111 390 1134.34015 390 1161.03086 368.804644 1176.96136 339.547326L1186.19295 383.084966 1218 383.084966 1208.93625 337.676342 1208.90628 290.846987zM1512.80763 301.29924C1503.13555 334.286699 1474.8454 360.030485 1428.83357 360.030485 1379.57082 360.030485 1336.54398 321.399594 1336.54398 242.418924 1336.54398 165.747346 1379.57082 125.972557 1428.26586 125.972557 1467.62645 125.972557 1498.72829 145.357975 1510.41725 184.536476L1545.7142 184.536476C1536.65167 138.378981 1495.00228 96 1431.67215 96 1349.00384 96 1302 156.526191 1302 243 1302 328.895776 1347.30667 390 1427.69515 390 1490.62789 390 1536.22738 354.788634 1548 301.29924L1512.80763 301.29924z" mask="url(#d)"/>
  </g>
</svg>
