<svg xmlns="http://www.w3.org/2000/svg" width="2400" height="1800" viewBox="0 0 2400 1800">
  <path fill="#E15D5D" fill-rule="evenodd" d="M1661.99772,654 C1733.89974,654 1789,709.971264 1789,781.502284 C1789,853.494706 1733.37098,909 1661.99772,909 C1590.62902,909 1535,853.494706 1535,781.502284 C1535,709.971264 1590.10026,654 1661.99772,654 Z M1661.52502,866 C1614.04425,866 1579,828.994223 1579,780.997716 C1579,733.316405 1613.68944,696 1661.52502,696 C1709.3515,696 1744,733.316405 1744,780.997716 C1744,828.994223 1709.00579,866 1661.52502,866 Z M877,909 L877,866.500761 C924.578279,866.500761 959.639796,829.5018 959.639796,781.497716 C959.639796,733.808846 924.933817,696.490102 877,696.490102 L877,654 C948.900725,654 1004,709.971264 1004,781.497716 C1004,853.494706 948.371976,909 877,909 Z M1203.89475,654 C1274.72153,654 1329,709.971264 1329,781.502284 C1329,853.494706 1274.20112,909 1203.89475,909 C1175.4773,909 1150.53842,899.191781 1131,882.654401 L1131,835.075172 C1147.90895,854.394668 1173.51889,866.509898 1201.01877,866.509898 C1249.12072,866.509898 1284.57748,829.5018 1284.57748,781.502284 C1284.57748,733.817983 1249.47679,696.499239 1201.01877,696.499239 C1173.38194,696.499239 1147.85874,708.651015 1131,727.929397 L1131,680.583153 C1150.62059,663.876744 1175.65534,654 1203.89475,654 Z M1191,1127 L1191,977 L1218,977 L1218,1127 L1191,1127 Z M1416,1052.5 C1416,1008.46008 1450.04858,974 1494.5,974 C1538.93319,974 1573,1008.46008 1573,1052.5 C1573,1096.82663 1538.61408,1131 1494.5,1131 C1450.38136,1131 1416,1096.82663 1416,1052.5 Z M1494.0273,1105 C1523.3788,1105 1545,1082.14255 1545,1052.5 C1545,1023.04466 1523.5972,1000 1494.0273,1000 C1464.4574,1000 1443,1023.04466 1443,1052.5 C1443,1082.14255 1464.67125,1105 1494.0273,1105 Z M1329.35946,974 C1347.32208,974 1364.1,979.614964 1376.00189,992.088599 C1386.79685,1003.40083 1396,1020.35546 1396,1043.85327 L1396,1128 L1369.05379,1128 L1369.05379,1046.50071 C1369.05379,1017.79489 1352.95284,1000.05837 1324.88139,1000.05837 C1304.00047,1000.05837 1286.86577,1011.32031 1277.95079,1023.87625 L1277.95079,1127.98628 L1251,1127.98628 L1251,977.388183 L1275.86041,977.388183 L1277.1183,996.825653 L1277.95079,995.897447 C1291.27066,981.485095 1309.02744,974 1329.35946,974 Z M923.5,974 C967.954004,974 1002,1008.46008 1002,1052.5 C1002,1096.82663 967.616644,1131 923.5,1131 C879.383356,1131 845,1096.82663 845,1052.5 C845,1008.46008 879.064231,974 923.5,974 Z M924.025026,1105 C953.377838,1105 975,1082.14255 975,1052.5 C975,1023.04466 953.600794,1000 924.025026,1000 C894.449257,1000 873,1023.04466 873,1052.5 C873,1082.14255 894.672213,1105 924.025026,1105 Z M1092.8246,973.636722 C1136.50569,973.636722 1170,1008.17654 1170,1052.31836 C1170,1096.74755 1136.19134,1131 1092.8246,1131 C1073.67654,1131 1057.01595,1123.83842 1044.55581,1111.8325 L1032.20957,1127.25499 L1022,1127.25499 L1022,909 L1047.86333,909 L1047.86333,990.035383 C1059.959,979.744596 1075.40774,973.636722 1092.8246,973.636722 Z M1091.3056,1105 C1121.06849,1105 1143,1082.14255 1143,1052.5 C1143,1023.04466 1121.2878,1000 1091.3056,1000 C1074.20816,1000 1058.42661,1007.49282 1048,1019.41011 L1048,1085.59445 C1058.46316,1097.52544 1074.2904,1105 1091.3056,1105 Z M810.618474,932 L824,932 L824,1127 L796.527149,1127 L796.527149,993.487061 L732.508763,1075.08083 L717.78954,1075.08083 L655.472851,994.444307 L655.472851,1127 L628,1127 L628,958.871245 L628,932 L642.487174,932 L643.378973,932 L725.738375,1040.13682 L810.618474,932 Z"/>
</svg>
