<svg xmlns="http://www.w3.org/2000/svg" width="1024" height="768" viewBox="0 0 1024 768" xmlns:xlink="http://www.w3.org/1999/xlink" style="background:#fff">
  <defs>
    <polygon id="a" points="56.714 87.127 56.714 102 0 102 0 .607 14.448 .607 7.611 78.336 7.217 82.819 11.724 83.211"/>
    <path id="c" d="M93.375,1.12499995 L93.375,51.7500003 L0,50.6250005 L0,39.375 C0,39.375 12.375,37.1250005 41.625,39.375 C70.875,41.6249995 83.25,39.375 83.25,39.375 L83.25,1.125 L93.375,1.12499995 Z"/>
    <path id="e" d="M24.6827913,67.910058 L0,67.910058 L0,2.95261122 L24.6827913,2.95261122 C22.2292757,5.11671118 20.6818182,8.2829822 20.6818182,11.8104449 C20.6818182,18.3331738 25.9729981,23.6208897 32.5,23.6208897 C39.0270019,23.6208897 44.3181818,18.3331738 44.3181818,11.8104449 C44.3181818,8.2829822 42.7707243,5.11671118 40.3172087,2.95261122 L65,2.95261122 L65,67.910058 L40.3172087,67.910058 C42.7707243,65.7459581 44.3181818,62.579687 44.3181818,59.0522244 C44.3181818,52.5294955 39.0270019,47.2417795 32.5,47.2417795 C25.9729981,47.2417795 20.6818182,52.5294955 20.6818182,59.0522244 C20.6818182,62.579687 22.2292757,65.7459581 24.6827913,67.910058 Z"/>
  </defs>
  <g fill="none" fill-rule="evenodd">
    <g stroke="#000000" transform="translate(99 169)">
      <path stroke-width="4.5" d="M68.5355191,74.2588027 C68.5355191,64.913842 69.2907233,59.7636355 59.4725694,57.5109064 C49.6500897,55.256853 40.5069444,53.2830458 44.9350133,44.977297 C58.4135532,19.6957138 48.5077165,6.17553191 34.2746379,6.17553191 C19.7610406,6.17553191 10.0989523,20.2146576 23.6142625,44.977297 C28.1751036,53.3336987 18.6880483,55.305354 9.07670627,57.5109064 C-0.741780326,59.7636355 0.0134238809,64.9140076 0.0134238809,74.2588027"/>
      <path stroke-width="2.25" d="M97.5024585,68.0832708 C97.5024585,58.7383101 98.2576627,53.5881036 88.4395089,51.3353745 C78.6170292,49.0813211 69.4738838,47.1075139 73.9019527,38.8017651 C87.3804926,13.5201819 77.4746559,0 63.2415773,0 C58.2739932,0 53.8747608,1.6446761 50.7786909,4.80108264"/>
    </g>
    <g transform="translate(345 155)">
      <path stroke="#000000" stroke-width="2.25" d="M38.452381 53.625C44.0784635 53.625 48.6369048 49.0905506 48.6369048 43.5 48.6369048 37.9094494 44.0784635 33.375 38.452381 33.375 32.8262984 33.375 28.2678571 37.9094494 28.2678571 43.5 28.2678571 49.0905506 32.8262984 53.625 38.452381 53.625zM76.9047619 96.375C83.78006 96.375 89.3511905 90.8331913 89.3511905 84 89.3511905 77.1668087 83.78006 71.625 76.9047619 71.625 70.0294638 71.625 64.4583333 77.1668087 64.4583333 84 64.4583333 90.8331913 70.0294638 96.375 76.9047619 96.375z"/>
      <ellipse cx="85.952" cy="48" stroke="#000000" stroke-width="2.25" rx="7.923" ry="7.875"/>
      <mask id="b" fill="white">
        <use xlink:href="#a"/>
      </mask>
      <rect width="40.726" height="74.25" x="3.387" y="22.125" stroke="#000000" stroke-width="2.25" mask="url(#b)"/>
      <path stroke="#000000" stroke-width="4.5" d="M14.5564933,76.6821277 L55.0634534,80.2073754 L61.5056059,6.96078326 L20.9986458,3.43553556 L14.5564933,76.6821277 Z"/>
    </g>
    <path fill="#000000" d="M629.22313,189.4 L630.14593,189.4 L629.679925,194.8 L617.65402,194.8 L618.315539,192.0952 C618.018061,190.264798 617.920488,188.379841 618.001876,186.520013 L614.707757,186.520014 L607.125926,209.2 L604.487805,209.2 L612.912067,184 L618.222734,184 C618.669044,180.617391 619.700327,177.446967 621.182199,175 C623.926102,175 632.297061,175 632.297061,175 C630.922889,177.793964 630.007515,180.91247 629.550941,184 L660.087933,184 L668.512195,209.2 L665.874074,209.2 L658.292239,186.52 L629.279218,186.52001 C629.213245,187.497141 629.194549,188.461058 629.22313,189.4 Z M635.731539,189.4 L653.884771,189.4 L655.234973,194.8 L635.692877,194.8 L635.731539,189.4 Z M651.411722,198.4 L656.135108,198.4 L657.035243,202 L652.098185,202 L651.411722,198.4 Z M652.681679,205.06 L657.800357,205.06 L658.835512,209.2 L653.471112,209.2 L652.681679,205.06 Z M621.496945,198.4 L620.830156,202 L615.893098,202 L616.773559,198.4 L621.496945,198.4 Z M620.263385,205.06 L619.496577,209.2 L614.132177,209.2 L615.144707,205.06 L620.263385,205.06 Z M640.390488,198.4 L640.578385,202 L635.641328,202 L635.667102,198.4 L640.390488,198.4 Z M624.645869,198.4 L629.369255,198.4 L629.058584,202 L624.121527,202 L624.645869,198.4 Z M640.738097,205.06 L640.954178,209.2 L635.589778,209.2 L635.619419,205.06 L640.738097,205.06 Z M623.675837,205.06 L628.794515,205.06 L628.437244,209.2 L623.072844,209.2 L623.675837,205.06 Z M643.539412,198.4 L648.262798,198.4 L648.806814,202 L643.869756,202 L643.539412,198.4 Z M644.150549,205.06 L649.269227,205.06 L649.894845,209.2 L644.530445,209.2 L644.150549,205.06 Z M622.22183,176.8 C620.215603,180.645851 619.333914,186.035131 619.959573,190.984009 L627.525238,190.984009 C627.137312,186.438327 627.863114,181.328415 629.573113,176.8 L622.22183,176.8 Z M599,212.8 L674,212.8 L674,238 L599,238 L599,212.8 Z M669.714287,233.680002 L669.714283,217.12 L603.285714,217.12 L603.285714,233.680001 L669.714287,233.680002 Z M636.5,228.205882 C634.984584,228.205882 633.756098,226.89039 633.756098,225.267647 C633.756098,223.644904 634.984584,222.329412 636.5,222.329412 C638.015416,222.329412 639.243902,223.644904 639.243902,225.267647 C639.243902,226.89039 638.015416,228.205882 636.5,228.205882 Z"/>
    <g stroke="#000000" transform="matrix(-1 0 0 1 673 358)">
      <circle cx="36" cy="36" r="34.875" stroke-width="2.25"/>
      <polyline stroke-width="4.95" points="27 27.491 35.975 36.466 54.441 18"/>
    </g>
    <g transform="translate(113 356)">
      <path stroke="#000000" stroke-width="2.25" d="M5.52221466,21 L1.34448028,72.75 L68.6555197,72.75 L64.4777853,21 L5.52221466,21 Z"/>
      <polygon fill="#000000" points="20 4.5 20 28.5 24.5 28.5 24.5 0"/>
      <polygon fill="#000000" points="45.5 4.5 45.5 28.5 50 28.5 50 0" transform="matrix(-1 0 0 1 95.5 0)"/>
      <rect width="21" height="4.5" x="24.5" fill="#000000"/>
    </g>
    <g stroke="#000000" transform="translate(103 550)">
      <rect width="87.75" height="56.75" x="1.125" y="1.125" stroke-width="2.25" rx="6.75"/>
      <rect width="11.25" height="9.096" x="10.125" y="26.087" stroke-width="2.25"/>
      <path stroke-width="6.75" d="M1.125,14.75 L88.875,14.75"/>
    </g>
    <g transform="translate(343 556)">
      <g transform="translate(4.5 2.25)">
        <mask id="d" fill="white">
          <use xlink:href="#c"/>
        </mask>
        <path stroke="#000000" stroke-width="2.25" d="M46.1148775,6.75 C18,4.49999996 5.625,6.75 5.625,6.75 L5.625,45 C5.625,45 18,42.7500005 47.25,45 C76.5,47.2499995 88.875,45 88.875,45 L88.875,6.75 C88.875,6.75 74.229755,9.00000004 46.1148775,6.75 Z" mask="url(#d)"/>
      </g>
      <path stroke="#000000" stroke-width="2.25" d="M41.6148775,6.94999613e-14 C13.5,-2.25000004 1.125,6.94999613e-14 1.125,6.94999613e-14 L1.125,38.25 C1.125,38.25 13.5,36.0000005 42.75,38.25 C72,40.4999995 84.375,38.25 84.375,38.25 L84.375,6.94999613e-14 C84.375,6.94999613e-14 69.729755,2.25000004 41.6148775,6.94999613e-14 Z"/>
      <path stroke="#000000" stroke-width="4.5" d="M33.75,18.8875925 C33.75,23.8581552 37.7794373,27.9953528 42.75,28.1282819 C47.7205627,28.261211 51.75,24.3395341 51.75,19.3689713 C51.75,14.3984086 47.7205627,10.261211 42.75,10.1282819 C37.7794373,9.99535279 33.75,13.9170297 33.75,18.8875925 Z"/>
    </g>
    <g transform="translate(590 555)">
      <path stroke="#000000" stroke-width="2.475" d="M14.8333333,40.9090909 C18.58098,40.9090909 21.6190476,37.8564871 21.6190476,34.0909091 C21.6190476,30.3253311 18.58098,27.2727273 14.8333333,27.2727273 C11.0856866,27.2727273 8.04761905,30.3253311 8.04761905,34.0909091 C8.04761905,37.5185828 10.564908,40.3554987 13.8432715,40.8370393" stroke-dasharray="1.25"/>
      <rect width="2.262" height="4.545" x="28.405" y="5.682" fill="#000000"/>
      <rect width="2.262" height="4.545" x="28.405" y="28.409" fill="#000000"/>
      <rect width="2.262" height="4.545" x="28.405" y="39.773" fill="#000000"/>
      <rect width="2.262" height="4.545" x="28.405" y="17.045" fill="#000000"/>
      <polyline stroke="#000000" stroke-width="2.25" points="31 48.87 80 48.87 93 35.943 93 1.14 31 1.14"/>
      <rect width="29.405" height="4.545" x="37.452" y="11.364" fill="#000000"/>
      <polygon fill="#000000" points="79.298 48.864 80.429 36.364 92.869 35.227"/>
      <polyline stroke="#000000" stroke-width="2.25" points="28.405 1.14 .131 1.14 .131 48.87 28.405 48.87"/>
    </g>
    <path stroke="#000000" stroke-width="2.25" d="M921,206.5 C921,230.524388 901.524388,250 877.5,250 C853.475612,250 834,230.524388 834,206.5 C834,182.475612 853.475612,163 877.5,163 C901.524388,163 921,182.475612 921,206.5 Z M899.772351,186.281479 C896.240145,180.844362 887.503209,175.768384 877.499968,175.76 C867.496726,175.768384 858.759791,180.844363 855.227585,186.281479 C853.337467,189.190934 854.372786,192.58 857.99673,192.58 L897.003205,192.58 C900.62715,192.58 901.662614,189.191158 899.772351,186.281479 Z"/>
    <text fill="#000000" font-family="AvenirNext-Bold, Avenir Next" font-size="18" font-weight="bold" letter-spacing=".9">
      <tspan x="846.18" y="215">00000</tspan>
    </text>
    <g stroke="#000000" transform="translate(841 352)">
      <path stroke-width="2.25" d="M18.4044912,78.7110426 L17.7666833,76.7927974 C17.5002558,75.9915008 17.3644405,75.1525682 17.3644405,74.3081395 C17.3644405,69.9588971 20.8901981,66.4331395 25.2394405,66.4331395 L27.6979171,66.4331395 L40.1094462,50.0357902 L40.8343206,50.2217151 C42.8199535,50.7310152 44.8732533,50.9912791 46.9615385,50.9912791 C60.6297963,50.9912791 71.7133046,39.8300852 71.7133046,26.0581395 C71.7133046,12.2861939 60.6297963,1.125 46.9615385,1.125 C33.2932806,1.125 22.2097724,12.2861939 22.2097724,26.0581395 C22.2097724,30.6845261 23.461508,35.1228586 25.79422,38.988936 L26.1853506,39.6371691 L1.22420815,73.036318 L3.46956428,81.7302088 L17.8261428,79.4751209 L18.4044912,78.7110426 Z"/>
      <path stroke-width="4.5" d="M51.7535322,24.7732558 C54.7418322,24.7732558 57.1707221,22.3273415 57.1707221,19.3023256 C57.1707221,16.2773096 54.7418322,13.8313953 51.7535322,13.8313953 C48.7652321,13.8313953 46.3363422,16.2773096 46.3363422,19.3023256 C46.3363422,22.3273415 48.7652321,24.7732558 51.7535322,24.7732558 Z"/>
    </g>
    <g transform="translate(830 535)">
      <rect width="2.262" height="31.334" x="76.905" y="30.505" fill="#000000"/>
      <rect width="2.262" height="31.334" x="61.071" y="30.505" fill="#000000"/>
      <rect width="2.262" height="31.334" x="54.286" y="30.505" fill="#000000"/>
      <rect width="2.262" height="31.334" x="38.452" y="30.505" fill="#000000"/>
      <rect width="2.262" height="31.334" x="31.667" y="30.505" fill="#000000"/>
      <rect width="2.262" height="31.334" x="15.833" y="30.505" fill="#000000"/>
      <rect width="2.262" height="31.334" x="9.048" y="30.505" fill="#000000"/>
      <rect width="85.952" height="2.29" x="4.524" y="25.194" fill="#000000"/>
      <rect width="85.952" height="2.29" x="4.524" y="61.839" fill="#000000"/>
      <rect width="95" height="2.29" y="68.71" fill="#000000"/>
      <path stroke="#000000" stroke-width="2.25" d="M89.4905739,22.5200293 L47.5,1.26096457 L5.78299376,22.381527 L5.78299377,24.0685484 L89.4648677,24.0685484 L89.4905739,22.5200293 Z"/>
      <rect width="2.262" height="31.334" x="83.69" y="30.505" fill="#000000"/>
    </g>
    <g transform="translate(360 358)">
      <mask id="f" fill="white">
        <use xlink:href="#e"/>
      </mask>
      <ellipse cx="32.5" cy="35.431" stroke="#000000" stroke-width="2.25" mask="url(#f)" rx="31.375" ry="31.354"/>
      <ellipse cx="32.5" cy="35.431" stroke="#000000" stroke-width="2.25" mask="url(#f)" rx="23.989" ry="23.972"/>
      <ellipse cx="32.5" cy="35.431" stroke="#000000" stroke-width="2.25" mask="url(#f)" rx="15.864" ry="15.853"/>
      <path fill="#000000" d="M32.5076941,43.7509319 C37.1012417,43.7509319 40.8250473,40.0295641 40.8250473,35.4390237 C40.8250473,30.8484834 37.1012417,27.1271156 32.5076941,27.1271156 C27.9141466,27.1271156 24.1903409,30.8484834 24.1903409,35.4390237 C24.1903409,40.0295641 27.9141466,43.7509319 32.5076941,43.7509319 Z" mask="url(#f)"/>
    </g>
  </g>
</svg>
