<svg xmlns="http://www.w3.org/2000/svg" width="2400" height="1800" viewBox="0 0 2400 1800">
  <path fill="#E15D5D" fill-rule="evenodd" d="M999.186285,822 C1022.85901,822 1041,840.409372 1041,863.936466 C1041,887.615318 1022.68493,905.871429 999.186285,905.871429 C975.689144,905.871429 957.37407,887.615318 957.37407,863.936466 C957.37407,840.409372 975.515058,822 999.186285,822 Z M999.186285,891.896113 C983.521524,891.896113 971.959796,879.72387 971.959796,863.936466 C971.959796,848.252738 983.404466,835.978321 999.186285,835.978321 C1014.9651,835.978321 1026.39627,848.252738 1026.39627,863.936466 C1026.39627,879.72387 1014.85105,891.896113 999.186285,891.896113 Z M740.999124,905.873382 L740.999124,891.895061 C756.663885,891.895061 768.207604,879.725823 768.207604,863.936916 C768.207604,848.251687 756.780943,835.977269 740.999124,835.977269 L740.999124,822.001953 C764.671852,822.001953 782.812839,840.411325 782.812839,863.936916 C782.812839,887.617271 764.497766,905.873382 740.999124,905.873382 Z M848.590127,822 C871.874162,822 889.718002,840.409372 889.718002,863.936466 C889.718002,887.615318 871.703077,905.871429 848.590127,905.871429 C839.247998,905.871429 831.049437,902.645431 824.626254,897.206162 L824.626254,881.556993 C830.185008,887.911322 838.604179,891.896113 847.644658,891.896113 C863.457992,891.896113 875.114267,879.72387 875.114267,863.936466 C875.114267,848.252738 863.57505,835.978321 847.644658,835.978321 C838.559157,835.978321 830.1685,839.975132 824.626254,846.315938 L824.626254,830.7434 C831.07645,825.248536 839.306527,822 848.590127,822 Z M844.272638,977.765646 L844.272638,928.283322 L852.991957,928.283322 L852.991957,977.765646 L844.272638,977.765646 Z M918.248337,953.082333 C918.248337,938.542054 929.45739,927.164665 944.09114,927.164665 C958.718886,927.164665 969.933943,938.542054 969.933943,953.082333 C969.933943,967.717273 958.613834,979 944.09114,979 C929.566944,979 918.248337,967.717273 918.248337,953.082333 Z M944.09114,970.358774 C953.772436,970.358774 960.903969,962.836956 960.903969,953.082333 C960.903969,943.389314 953.844472,935.805891 944.09114,935.805891 C934.337808,935.805891 927.260301,943.389314 927.260301,953.082333 C927.260301,962.836956 934.408342,970.358774 944.09114,970.358774 Z M889.760923,927.164665 C895.654343,927.164665 901.15907,929.00981 905.064005,933.108795 C908.605759,936.82613 911.625255,942.397624 911.625255,950.119283 L911.625255,977.770905 L902.784375,977.770905 L902.784375,950.989266 C902.784375,941.556191 897.501758,935.727758 888.291695,935.727758 C881.440801,935.727758 875.819016,939.428565 872.894067,943.554596 L872.894067,977.766398 L864.051686,977.766398 L864.051686,928.278063 L872.208227,928.278063 L872.620932,934.665448 L872.894067,934.360428 C877.264232,929.624357 883.090118,927.164665 889.760923,927.164665 Z M756.388948,927.164665 C771.022698,927.164665 782.230251,938.542054 782.230251,953.082333 C782.230251,967.717273 770.911643,979 756.388948,979 C741.866254,979 730.547646,967.717273 730.547646,953.082333 C730.547646,938.542054 741.761201,927.164665 756.388948,927.164665 Z M756.388948,970.358774 C766.070245,970.358774 773.201778,962.836956 773.201778,953.082333 C773.201778,943.389314 766.143781,935.805891 756.388948,935.805891 C746.634116,935.805891 739.559611,943.389314 739.559611,953.082333 C739.559611,962.836956 746.707652,970.358774 756.388948,970.358774 Z M812.084091,927.164665 C826.473219,927.164665 837.506686,938.542054 837.506686,953.082333 C837.506686,967.717273 826.369668,979 812.084091,979 C805.776466,979 800.288247,976.64098 796.183713,972.68624 L792.116699,977.766398 L788.753532,977.766398 L788.753532,905.873382 L797.273253,905.873382 L797.273253,932.566371 C801.257727,929.176594 806.346748,927.164665 812.084091,927.164665 Z M811.4973,970.358774 C821.273143,970.358774 828.476712,962.836956 828.476712,953.082333 C828.476712,943.389314 821.345179,935.805891 811.4973,935.805891 C805.881518,935.805891 800.69795,938.271593 797.273253,942.193276 L797.273253,963.972892 C800.709956,967.899082 805.908531,970.358774 811.4973,970.358774 Z M719.233841,913.484603 L723.647528,913.484603 L723.647528,977.762641 L714.586038,977.762641 L714.586038,933.752642 L693.470577,960.648476 L688.615672,960.648476 L668.061489,934.06818 L668.061489,977.762641 L659,977.762641 L659,922.342197 L659,913.484603 L663.778367,913.484603 L664.072513,913.484603 L691.237471,949.129847 L719.233841,913.484603 Z"/>
</svg>
