<svg xmlns="http://www.w3.org/2000/svg" width="2400" height="1800" viewBox="0 0 2400 1800" style="background:#e15d5d">
  <path fill="#FFFFFF" fill-rule="evenodd" d="M2073.7666,818 C2120.32283,818 2156,854.215857 2156,900.499557 C2156,947.081804 2119.98046,982.996157 2073.7666,982.996157 C2027.55569,982.996157 1991.53615,947.081804 1991.53615,900.499557 C1991.53615,854.215857 2027.21332,818 2073.7666,818 Z M2073.7666,955.503202 C2042.95933,955.503202 2020.22133,931.557344 2020.22133,900.499557 C2020.22133,869.645727 2042.72911,845.498867 2073.7666,845.498867 C2104.79818,845.498867 2127.27941,869.645727 2127.27941,900.499557 C2127.27941,931.557344 2104.57387,955.503202 2073.7666,955.503202 Z M1566,983 L1566,955.501133 C1596.80727,955.501133 1619.50985,931.561187 1619.50985,900.500443 C1619.50985,869.643658 1597.03749,845.496798 1566,845.496798 L1566,818.003843 C1612.55623,818.003843 1648.2334,854.2197 1648.2334,900.500443 C1648.2334,947.085646 1612.21386,983 1566,983 Z M1777.59502,818 C1823.38682,818 1858.47961,854.215857 1858.47961,900.499557 C1858.47961,947.081804 1823.05036,982.996157 1777.59502,982.996157 C1759.22222,982.996157 1743.09843,976.64981 1730.46621,965.949402 L1730.46621,935.163559 C1741.39839,947.664119 1757.95605,955.503202 1775.7356,955.503202 C1806.83507,955.503202 1829.75901,931.557344 1829.75901,900.499557 C1829.75901,869.645727 1807.06528,845.498867 1775.7356,845.498867 C1757.8675,845.498867 1741.36593,853.361598 1730.46621,865.835554 L1730.46621,835.200463 C1743.15156,824.390686 1759.33733,818 1777.59502,818 Z"/>
</svg>
