<svg xmlns="http://www.w3.org/2000/svg" width="2400" height="1800" viewBox="0 0 2400 1800" style="background:#fff">
  <g fill="none" fill-rule="evenodd">
    <path fill="#8000FF" d="M168.1,384.399989 L276.1,276.388021 L384.1,384.399989 L276.1,492.411957 L168.1,384.399989 Z M403.3,367.598127 L295.3,257.185893 L468.1,84.3667442 L576.1,192.378712 L403.3,367.598127 Z M259.3,257.185893 L151.3,365.197861 L84.1,297.990414 L192.1,189.978446 L259.3,257.185893 Z M151.3,401.201851 L259.3,509.213819 L192.1,576.421266 L84.1,468.409297 L151.3,401.201851 Z M295.3,511.614085 L403.3,403.602117 L576.1,576.421266 L468.1,684.433234 L295.3,511.614085 Z M422.5,384.399989 L595.3,211.58084 L768.1,384.399989 L595.3,557.219138 L422.5,384.399989 Z M451.3,67.5648825 L278.5,240.384031 L208.9,173.176585 L384.1,0.357435727 L451.3,67.5648825 Z M67.3,317.192542 L134.5,384.399989 L67.3,451.607436 L0.1,384.399989 L67.3,317.192542 Z M211.3,595.623393 L278.5,528.415946 L451.3,701.235095 L384.1,768.442542 L211.3,595.623393 Z" transform="translate(819 518)"/>
  </g>
</svg>
