<svg xmlns="http://www.w3.org/2000/svg" width="2400" height="1800" viewBox="0 0 2400 1800" xmlns:xlink="http://www.w3.org/1999/xlink" style="background:#8000ff">
  <defs>
    <polygon id="a" points="1138.168 336.87 1138.168 80.058 546.637 80.058 546.637 336.87 1138.168 336.87"/>
  </defs>
  <g fill="none" fill-rule="evenodd" transform="translate(634 678)">
    <path fill="#FFFFFF" d="M224.053458,-0.00128 L123.373537,100.65152 L162.342694,139.64032 L263.016216,38.98112 L224.053458,-0.00128 Z M172.696076,149.99552 L236.313705,213.64992 L336.993626,112.99072 L273.369598,49.33632 L172.696076,149.99552 Z M49.3513343,174.66112 L88.3204916,213.64352 L151.982913,149.98912 L113.013756,111.00672 L49.3513343,174.66112 Z M246.667087,224.00512 L347.270222,324.66432 L447.962941,224.00512 L347.347008,123.34592 L246.667087,224.00512 Z M98.6674747,224.00512 L162.291503,287.64672 L225.953924,223.99872 L162.342694,160.35072 L98.6674747,224.00512 Z M0.0031994382,223.99232 L38.9723567,262.98112 L77.9671096,223.99872 L38.9915534,185.00992 L0.0031994382,223.99232 Z M49.3257388,273.34272 L112.936969,336.98432 L151.931722,298.00192 L88.3140927,234.35392 L49.3257388,273.34272 Z M172.651284,298.00832 L273.260817,398.66112 L336.91684,335.01952 L236.307306,234.36032 L172.651284,298.00832 Z M123.29675,347.34592 L223.899885,447.99872 L262.901037,409.00992 L162.291503,308.36352 L123.29675,347.34592 Z"/>
    <polygon fill="#FFFFFF" points="522.978 81.021 591.702 81.021 591.702 97.962 566.292 97.962 566.292 192.919 548.395 192.919 548.395 97.962 522.978 97.962"/>
    <mask id="b" fill="white">
      <use xlink:href="#a"/>
    </mask>
    <path fill="#FFFFFF" d="M604.623433 192.9216L622.207545 192.9216 622.207545 112.992 604.623433 112.992 604.623433 192.9216zM613.421888 80.0576C619.974337 80.0576 625.247011 85.3376 625.247011 92.0512 625.247011 98.7648 619.974337 104.0384 613.421888 104.0384 606.869438 104.0384 601.590365 98.7648 601.590365 92.0512 601.590365 85.3376 606.869438 80.0576 613.421888 80.0576L613.421888 80.0576zM639.657921 112.99008L657.242033 112.99008 657.242033 122.10368C661.554876 116.19008 669.233528 112.03648 678.019185 112.03648 687.771072 112.03648 694.637067 116.03008 698.956308 123.06368 705.028842 116.67008 711.581292 112.03648 723.09287 112.03648 739.390808 112.03648 749.302668 120.82368 749.302668 140.48448L749.302668 192.91968 731.718556 192.91968 731.718556 144.96448C731.718556 134.57088 726.925797 128.65728 717.500252 128.65728 709.348084 128.65728 703.269151 134.57088 703.269151 144.96448L703.269151 192.91968 685.691438 192.91968 685.691438 144.96448C685.691438 134.57088 680.732308 128.65728 671.466735 128.65728 663.314567 128.65728 657.242033 134.57088 657.242033 144.96448L657.242033 192.91968 639.657921 192.91968 639.657921 112.99008zM780.901599 143.36512L823.415734 143.36512C820.862583 135.05152 812.230498 128.33792 802.158667 128.33792 792.093234 128.33792 783.46115 135.05152 780.901599 143.36512L780.901599 143.36512zM780.10174 159.03232C782.021403 169.09952 791.133403 177.25312 802.638583 177.25312 810.790751 177.25312 817.343201 174.69952 820.702611 169.57952L841.639734 169.57952C836.200689 184.13312 820.702611 193.88032 802.638583 193.88032 779.461852 193.88032 761.564195 175.65312 761.564195 152.95872 761.564195 130.25792 779.461852 112.03072 802.158667 112.03072 824.855481 112.03072 842.759538 130.25792 842.759538 152.95872 842.759538 155.03232 842.593167 157.10592 842.273223 159.03232L780.10174 159.03232z" mask="url(#b)"/>
    <polygon fill="#FFFFFF" points="546.637 224.006 566.454 224.006 601.942 310.329 637.418 224.006 657.241 224.006 657.241 335.903 639.337 335.903 639.337 264.934 609.934 335.903 593.944 335.903 564.534 264.934 564.534 335.903 546.637 335.903" mask="url(#b)"/>
    <path fill="#FFFFFF" d="M709.186192 271.96544C695.921321 271.96544 685.689518 282.83904 685.689518 295.94624 685.689518 309.04704 695.921321 319.92064 709.186192 319.92064 722.131119 319.92064 732.042979 309.04704 732.042979 295.94624 732.042979 282.83904 722.131119 271.96544 709.186192 271.96544L709.186192 271.96544zM749.300748 255.97184L749.300748 335.90784 731.403091 335.90784 731.403091 327.59424C728.05008 331.90784 719.258024 336.86784 708.546304 336.86784 685.689518 336.86784 668.425349 319.92064 668.425349 295.94624 668.425349 271.96544 685.689518 255.01824 708.546304 255.01824 719.091653 255.01824 728.05008 259.97184 731.403091 264.29184L731.403091 255.97184 749.300748 255.97184zM802.479251 320.2432C816.064065 320.2432 825.655981 310.3296 825.655981 295.9424L843.233694 295.9424C843.233694 319.2832 825.655981 336.8704 802.479251 336.8704 778.982576 336.8704 761.558436 319.4432 761.558436 295.9424 761.558436 272.4416 778.982576 255.0208 802.479251 255.0208 814.944262 255.0208 824.376206 259.6544 831.728515 267.168L818.777189 278.8352C814.78429 274.5216 809.511616 271.6416 802.479251 271.6416 788.734464 271.6416 779.462492 281.5552 779.462492 295.9424 779.462492 310.3296 788.734464 320.2432 802.479251 320.2432M854.116903 224.00576L871.701016 222.08576 871.701016 265.08736C876.493774 259.33376 884.166027 255.02016 894.557802 255.02016 913.575263 255.02016 925.246813 266.68736 925.246813 287.94816L925.246813 335.90336 907.662701 335.90336 907.662701 291.78816C907.662701 279.32096 902.383628 271.64096 890.238561 271.64096 878.893353 271.64096 871.701016 280.11456 871.701016 291.78816L871.701016 335.90336 854.116903 335.90336 854.116903 224.00576zM940.916382 335.904L958.500494 335.904 958.500494 255.9744 940.916382 255.9744 940.916382 335.904zM949.708438 223.0464C956.267287 223.0464 961.533562 228.3264 961.533562 235.04 961.533562 241.7536 956.267287 247.0272 949.708438 247.0272 943.155989 247.0272 937.883315 241.7536 937.883315 235.04 937.883315 228.3264 943.155989 223.0464 949.708438 223.0464L949.708438 223.0464zM974.489367 255.9744L992.073479 255.9744 992.073479 265.088C995.746434 260.2944 1002.93877 255.0208 1013.97043 255.0208 1033.78775 255.0208 1044.65305 266.688 1044.65305 287.9488L1044.65305 335.904 1027.07533 335.904 1027.07533 291.7888C1027.07533 277.7152 1021.16277 271.6416 1009.65119 271.6416 998.146013 271.6416 992.073479 279.9552 992.073479 291.7888L992.073479 335.904 974.489367 335.904 974.489367 255.9744zM1076.31533 286.35264L1118.83586 286.35264C1116.27631 278.03904 1107.64423 271.32544 1097.57239 271.32544 1087.50696 271.32544 1078.87488 278.03904 1076.31533 286.35264L1076.31533 286.35264zM1075.51547 302.01984C1077.43513 312.08704 1086.54713 320.24064 1098.05231 320.24064 1106.20448 320.24064 1112.75693 317.68064 1116.11634 312.56704L1137.05346 312.56704C1131.62082 327.11424 1116.11634 336.86784 1098.05231 336.86784 1074.88198 336.86784 1056.97792 318.64064 1056.97792 295.94624 1056.97792 273.23904 1074.88198 255.01824 1097.57239 255.01824 1120.27561 255.01824 1138.17327 273.23904 1138.17327 295.94624 1138.17327 298.01984 1138.01329 300.09344 1137.69335 302.01984L1075.51547 302.01984z" mask="url(#b)"/>
  </g>
</svg>
